<svg width="39" height="39" viewBox="0 0 39 39" fill="none" xmlns="http://www.w3.org/2000/svg">
<rect width="39" height="39" rx="5" fill="white"/>
<path d="M16.67 22H12C10.9 22 10 22.9 10 24V30H16.67V22Z" stroke="#8F0EF4" stroke-width="1.5" stroke-miterlimit="10" stroke-linecap="round" stroke-linejoin="round"/>
<path d="M21.3302 18H18.6602C17.5602 18 16.6602 18.9 16.6602 20V30H23.3302V20C23.3302 18.9 22.4402 18 21.3302 18Z" stroke="#8F0EF4" stroke-width="1.5" stroke-miterlimit="10" stroke-linecap="round" stroke-linejoin="round"/>
<path d="M28 25H23.33V30H30V27C30 25.9 29.1 25 28 25Z" stroke="#8F0EF4" stroke-width="1.5" stroke-miterlimit="10" stroke-linecap="round" stroke-linejoin="round"/>
<path d="M20.52 10.07L21.05 11.13C21.12 11.28 21.31 11.42 21.47 11.44L22.43 11.6C23.04 11.7 23.19 12.15 22.75 12.58L22 13.33C21.87 13.46 21.8 13.7 21.84 13.87L22.05 14.79C22.22 15.52 21.83 15.8 21.19 15.42L20.29 14.89C20.13 14.79 19.86 14.79 19.7 14.89L18.8 15.42C18.16 15.8 17.77 15.52 17.94 14.79L18.15 13.87C18.19 13.7 18.12 13.45 17.99 13.33L17.25 12.59C16.81 12.15 16.95 11.71 17.57 11.61L18.53 11.45C18.69 11.42 18.88 11.28 18.95 11.14L19.48 10.08C19.77 9.49999 20.23 9.50001 20.52 10.07Z" stroke="#8F0EF4" stroke-width="1.5" stroke-linecap="round" stroke-linejoin="round"/>
</svg>
